<svg width="46" height="25" viewBox="0 0 46 25" fill="none" xmlns="http://www.w3.org/2000/svg">
<path d="M6.03409 24H0.761364L8.79545 0.727272H15.1364L23.1591 24H17.8864L12.0568 6.04545H11.875L6.03409 24ZM5.70455 14.8523H18.1591V18.6932H5.70455V14.8523ZM45.4006 8.875H40.4233C40.3324 8.23106 40.1468 7.65909 39.8665 7.15909C39.5862 6.65151 39.2263 6.2197 38.7869 5.86364C38.3475 5.50757 37.84 5.23485 37.2642 5.04545C36.696 4.85606 36.0786 4.76136 35.4119 4.76136C34.2074 4.76136 33.1581 5.06061 32.2642 5.65909C31.3703 6.25 30.6771 7.11364 30.1847 8.25C29.6922 9.37879 29.446 10.75 29.446 12.3636C29.446 14.0227 29.6922 15.4167 30.1847 16.5455C30.6847 17.6742 31.3816 18.5265 32.2756 19.1023C33.1695 19.678 34.2036 19.9659 35.3778 19.9659C36.0369 19.9659 36.6468 19.8788 37.2074 19.7045C37.7756 19.5303 38.2794 19.2765 38.7188 18.9432C39.1581 18.6023 39.5218 18.1894 39.8097 17.7045C40.1051 17.2197 40.3097 16.6667 40.4233 16.0455L45.4006 16.0682C45.2718 17.1364 44.9498 18.1667 44.4347 19.1591C43.9271 20.1439 43.2415 21.0265 42.3778 21.8068C41.5218 22.5795 40.4991 23.1932 39.3097 23.6477C38.1278 24.0947 36.7907 24.3182 35.2983 24.3182C33.2225 24.3182 31.3665 23.8485 29.7301 22.9091C28.1013 21.9697 26.8134 20.6098 25.8665 18.8295C24.9271 17.0492 24.4574 14.8939 24.4574 12.3636C24.4574 9.82576 24.9347 7.66667 25.8892 5.88636C26.8438 4.10606 28.1392 2.75 29.7756 1.81818C31.4119 0.878787 33.2528 0.40909 35.2983 0.40909C36.6468 0.40909 37.8968 0.598484 39.0483 0.977272C40.2074 1.35606 41.2339 1.90909 42.1278 2.63636C43.0218 3.35606 43.7491 4.23864 44.3097 5.28409C44.8778 6.32954 45.2415 7.52651 45.4006 8.875Z" fill="#F5F5F5"/>
</svg>
