<svg width="34" height="23" viewBox="0 0 34 23" fill="none" xmlns="http://www.w3.org/2000/svg">
<path d="M34 19.0469C34 21.1282 32.3059 22.8203 30.2222 22.8203H12.1184C11.1149 22.8203 10.1528 22.4253 9.44444 21.7178L0.553208 12.8325C0.198983 12.4787 0 12.0012 0 11.5C0 10.9988 0.199042 10.5213 0.553208 10.1675L9.44444 1.28519C10.1528 0.577078 11.1149 0.179688 12.1184 0.179688H30.2222C32.3059 0.179688 34 1.86889 34 3.95312V19.0469ZM15.9965 8.67582L18.7767 11.5L15.9965 14.2711C15.4476 14.8253 15.4476 15.7215 15.9965 16.2227C16.5514 16.8241 17.4486 16.8241 17.9503 16.2227L20.7778 13.4987L23.5521 16.2227C24.1069 16.8241 25.0042 16.8241 25.5059 16.2227C26.108 15.7215 26.108 14.8253 25.5059 14.2711L22.7788 11.5L25.5059 8.67582C26.108 8.17466 26.108 7.27847 25.5059 6.72424C25.0042 6.17592 24.1069 6.17592 23.5521 6.72424L20.7778 9.50126L17.9503 6.72424C17.4486 6.17592 16.5514 6.17592 15.9965 6.72424C15.4476 7.27847 15.4476 8.17466 15.9965 8.67582Z" fill="#9C9C9C"/>
</svg>
