<svg width="24" height="28" viewBox="0 0 24 28" fill="none" xmlns="http://www.w3.org/2000/svg">
<path d="M12 19.25C10.1063 19.25 8.57143 20.8168 8.57143 22.75C8.57143 24.6832 10.1063 26.25 12 26.25C13.8938 26.25 15.4286 24.6832 15.4286 22.75C15.4286 20.8168 13.8938 19.25 12 19.25ZM12 8.75C13.8938 8.75 15.4286 7.1832 15.4286 5.25C15.4286 3.3168 13.8938 1.75 12 1.75C10.1063 1.75 8.57143 3.3168 8.57143 5.25C8.57143 7.1832 10.1063 8.75 12 8.75ZM22.2857 11.375H1.71429C0.767679 11.375 0 12.1587 0 13.125V14.875C0 15.8413 0.767679 16.625 1.71429 16.625H22.2857C23.2323 16.625 24 15.8413 24 14.875V13.125C24 12.1587 23.2323 11.375 22.2857 11.375Z" fill="#EAEDF7"/>
</svg>
