<svg width="24" height="24" viewBox="0 0 24 24" fill="none" xmlns="http://www.w3.org/2000/svg">
<path d="M14.8253 12.0027L21.414 5.414C21.6022 5.22886 21.7519 5.00829 21.8545 4.76501C21.957 4.52172 22.0104 4.26054 22.0115 3.99653C22.0126 3.73252 21.9614 3.4709 21.8609 3.22677C21.7604 2.98263 21.6126 2.76081 21.4259 2.5741C21.2392 2.3874 21.0175 2.23949 20.7733 2.13893C20.5292 2.03836 20.2676 1.98712 20.0036 1.98817C19.7396 1.98921 19.4784 2.04252 19.2351 2.14501C18.9918 2.2475 18.7712 2.39715 18.586 2.58533L11.9973 9.174L5.40867 2.586C5.22294 2.40027 5.00244 2.25294 4.75977 2.15242C4.5171 2.0519 4.257 2.00016 3.99434 2.00016C3.73167 2.00016 3.47158 2.0519 3.22891 2.15242C2.98624 2.25294 2.76574 2.40027 2.58001 2.586C2.2049 2.9611 1.99417 3.46985 1.99417 4.00033C1.99417 4.53081 2.2049 5.03956 2.58001 5.41467L9.16867 12.0027L2.56401 18.6073C2.19402 18.9835 1.98766 19.4906 1.98987 20.0182C1.99208 20.5458 2.20268 21.0512 2.57581 21.4242C2.94893 21.7972 3.45434 22.0077 3.98195 22.0098C4.50955 22.0119 5.01661 21.8054 5.39267 21.4353L11.9967 14.8313L18.5847 21.4193C18.9753 21.81 19.4873 22.0053 19.9987 22.0053C20.51 22.0053 21.022 21.81 21.4127 21.4193C21.5985 21.2337 21.7459 21.0133 21.8465 20.7707C21.947 20.528 21.9988 20.268 21.9988 20.0053C21.9988 19.7427 21.947 19.4826 21.8465 19.24C21.7459 18.9974 21.5985 18.777 21.4127 18.5913L14.8253 12.0027V12.0027Z" fill="#EBEEF7"/>
</svg>
